<svg xmlns="http://www.w3.org/2000/svg" xmlns:xlink="http://www.w3.org/1999/xlink" id="图层_1" data-name="图层 1" viewBox="0 0 300 390">  <defs>    <linearGradient id="未命名的渐变_13" x1="319.24" y1="91.79" x2="319.24" y2="126.89" gradientTransform="matrix(1, 0, 0, -1, -50, 397)" gradientUnits="userSpaceOnUse">      <stop offset="0" stop-color="#fff"/>      <stop offset="1" stop-color="#6397f7"/>    </linearGradient>    <linearGradient id="未命名的渐变_13-2" x1="319.35" y1="135.79" x2="318.78" y2="63.26" gradientTransform="matrix(1, 0, 0, -1, 0, 402)" xlink:href="#未命名的渐变_13"/>    <linearGradient id="未命名的渐变_13-3" x1="62.26" y1="106.65" x2="62.26" y2="141.26" xlink:href="#未命名的渐变_13"/>    <linearGradient id="未命名的渐变_13-4" x1="62.35" y1="146.5" x2="61.86" y2="85.34" gradientTransform="matrix(1, 0, 0, -1, 0, 402)" xlink:href="#未命名的渐变_13"/>    <linearGradient id="未命名的渐变_13-5" x1="96.37" y1="35.98" x2="96.37" y2="80.42" xlink:href="#未命名的渐变_13"/>    <linearGradient id="未命名的渐变_13-6" x1="96.51" y1="91.68" x2="95.78" y2="-0.14" gradientTransform="matrix(1, 0, 0, -1, 0, 402)" xlink:href="#未命名的渐变_13"/>    <linearGradient id="未命名的渐变_103" x1="230.79" y1="109.41" x2="230.79" y2="4.33" gradientTransform="matrix(1, 0, 0, -1, 0, 402)" gradientUnits="userSpaceOnUse">      <stop offset="0" stop-color="#5a91f7"/>      <stop offset="0.2" stop-color="#a2c1fb" stop-opacity="0.8"/>      <stop offset="0.97" stop-color="#fff" stop-opacity="0.54"/>    </linearGradient>    <linearGradient id="未命名的渐变_104" x1="187.88" y1="121.74" x2="187.88" y2="404.68" gradientTransform="matrix(1, 0, 0, -1, 0, 402)" gradientUnits="userSpaceOnUse">      <stop offset="0" stop-color="#91d3f8"/>      <stop offset="0.93" stop-color="#d9f3ff"/>    </linearGradient>    <linearGradient id="未命名的渐变_105" x1="105.84" y1="243.82" x2="282.56" y2="243.82" gradientTransform="matrix(1, 0, 0, -1, 0, 402)" gradientUnits="userSpaceOnUse">      <stop offset="0" stop-color="#5a91f7"/>      <stop offset="1" stop-color="#2b62ba"/>    </linearGradient>    <linearGradient id="未命名的渐变_106" x1="195.11" y1="360.07" x2="195.11" y2="114.23" gradientTransform="matrix(1, 0, 0, -1, 0, 402)" gradientUnits="userSpaceOnUse">      <stop offset="0" stop-color="#91d3f8"/>      <stop offset="0.99" stop-color="#5a91f7"/>    </linearGradient>    <linearGradient id="未命名的渐变_106-2" x1="195.11" y1="133.47" x2="195.11" y2="115.08" gradientTransform="matrix(1, 0, 0, -1, -50, 397)" xlink:href="#未命名的渐变_106"/>    <linearGradient id="未命名的渐变_106-3" x1="180.87" y1="347.5" x2="190.36" y2="347.5" xlink:href="#未命名的渐变_106"/>    <linearGradient id="未命名的渐变_106-4" x1="193.98" y1="347.5" x2="203.47" y2="347.5" xlink:href="#未命名的渐变_106"/>    <linearGradient id="未命名的渐变_106-5" x1="207.49" y1="347.3" x2="216.98" y2="347.3" xlink:href="#未命名的渐变_106"/>  </defs>  <rect x="267.38" y="288.92" width="3.72" height="16.78" style="fill:url(#未命名的渐变_13)"/>  <path d="M327.09,276.53a8.37,8.37,0,0,0-7.85-5.83,8.46,8.46,0,0,0-8.16,7,8.72,8.72,0,0,0-6.38,8.55,8.58,8.58,0,0,0,8.35,8.79h.49a8.06,8.06,0,0,0,5.32,2,8.18,8.18,0,0,0,6.37-3.11h.11a8.57,8.57,0,0,0,8.34-8.79A8.69,8.69,0,0,0,327.09,276.53Z" transform="translate(-50 -5)" style="fill:url(#未命名的渐变_13-2)"/>  <rect x="10.69" y="273.86" width="3.13" height="14.15" style="fill:url(#未命名的渐变_13-3)"/>  <path d="M68.88,264.2a6.94,6.94,0,0,0-13.5,1,7.34,7.34,0,0,0-5.38,7.2,7.23,7.23,0,0,0,7,7.42l.42,0a6.75,6.75,0,0,0,4.49,1.71,6.88,6.88,0,0,0,5.37-2.63h.09a7.23,7.23,0,0,0,7-7.41A7.34,7.34,0,0,0,68.88,264.2Z" transform="translate(-50 -5)" style="fill:url(#未命名的渐变_13-4)"/>  <rect x="44.02" y="340.4" width="4.71" height="21.25" style="fill:url(#未命名的渐变_13-5)"/>  <path d="M106.31,323.38A10.43,10.43,0,0,0,86,324.84,11,11,0,0,0,78,335.66c0,6.15,4.72,11.14,10.56,11.14l.62,0a10.2,10.2,0,0,0,6.74,2.56A10.32,10.32,0,0,0,104,345.4h.15c5.83,0,10.56-5,10.56-11.13A11,11,0,0,0,106.31,323.38Z" transform="translate(-50 -5)" style="fill:url(#未命名的渐变_13-6)"/>  <g style="opacity:0.680000007152557">    <path d="M253.52,292.12H130.37c-4.64.24-10.29.08-14,3.58-4.36,1.41-6,3.84-3.78,6.61l68.87,84.79c6.1,6.77,18.36,7.88,26.62,7.9H331.22c4.63-.24,10.28-.08,14-3.58,4.36-1.41,6-3.84,3.78-6.61Q314.56,342.42,280.14,300C274,293.25,261.78,292.14,253.52,292.12Z" transform="translate(-50 -5)" style="fill:url(#未命名的渐变_103)"/>  </g>  <path d="M260.76,298H115c-8.55,0-15.48-7.31-15.48-16.31V21.31C99.51,12.3,106.44,5,115,5H260.76c8.55,0,15.48,7.3,15.48,16.31V281.72C276.24,290.72,269.31,298,260.76,298Z" transform="translate(-50 -5)" style="fill:url(#未命名的渐变_104)"/>  <path d="M267.09,304.7H121.32c-8.55,0-15.48-7.31-15.48-16.32V28c0-9,6.93-16.31,15.48-16.31H267.09c8.55,0,15.47,7.3,15.47,16.31v260.4C282.56,297.4,275.64,304.7,267.09,304.7Z" transform="translate(-50 -5)" style="fill:url(#未命名的渐变_105)"/>  <path d="M257.6,296.09h-125c-8.54,0-15.47-7.31-15.47-16.31V38.46c0-9,6.93-16.31,15.47-16.31h125c8.54,0,15.47,7.31,15.47,16.31V279.78C273.07,288.79,266.14,296.09,257.6,296.09Z" transform="translate(-50 -5)" style="fill:url(#未命名的渐变_106)"/>  <ellipse cx="145.11" cy="272.3" rx="9.72" ry="10.24" style="fill:url(#未命名的渐变_106-2)"/>  <path d="M261.92,227a9.37,9.37,0,1,1,8.9-9.32,9.12,9.12,0,0,1-8.9,9.32Zm.05-15.4a6.06,6.06,0,1,0,5.71,6.07,5.9,5.9,0,0,0-5.71-6.07Z" transform="translate(-50 -5)" style="fill:#e9f1ff"/>  <path d="M251.66,263.06l-117.29-.43c-7.38,0-13.33-6.34-13.3-14.11l.07-20.69c0-7.77,6-14,13.39-14l112.91.41a1.6,1.6,0,0,1,1.56,1.66,1.62,1.62,0,0,1-1.57,1.65l-112.94-.41a10.47,10.47,0,0,0-10.24,10.71l-.07,20.69a10.49,10.49,0,0,0,10.17,10.79l117.29.43a10,10,0,0,0,7.23-3.13,11,11,0,0,0,3-7.59l.05-16a1.57,1.57,0,1,1,3.14,0l-.05,16c0,7.75-6,14-13.36,14Z" transform="translate(-50 -5)" style="fill:#e9f1ff"/>  <path d="M261.19,171.68a9.37,9.37,0,1,1,8.91-9.32,9.14,9.14,0,0,1-8.91,9.32Zm.05-15.41a6.06,6.06,0,1,0,5.72,6.07,5.9,5.9,0,0,0-5.72-6.07Z" transform="translate(-50 -5)" style="fill:#e9f1ff"/>  <path d="M250.93,207.74l-117.29-.42c-7.37,0-13.32-6.35-13.3-14.12l.07-20.68c0-7.77,6-14.05,13.39-14l112.91.41a1.66,1.66,0,0,1,0,3.31l-112.94-.41a10.49,10.49,0,0,0-10.24,10.72l-.06,20.68A10.5,10.5,0,0,0,133.62,204l117.3.42a9.94,9.94,0,0,0,7.22-3.12,11.06,11.06,0,0,0,3-7.59l0-16a1.57,1.57,0,1,1,3.13,0l0,16c0,7.76-6,14-13.36,14Z" transform="translate(-50 -5)" style="fill:#e9f1ff"/>  <path d="M157.55,180.66c-.12-.1-.18-.17-.17-.2v-.19l.26,0,.63.18a1.54,1.54,0,0,0,.73-.29,6.08,6.08,0,0,0,.65-.45l1.29-1.24a1.2,1.2,0,0,1,.8-.4l.84.23.48.14.25.19.28.17.29.39.27.25a2.3,2.3,0,0,1,.36.65,2.19,2.19,0,0,1,.18,1,.69.69,0,0,1,0,.18,2.14,2.14,0,0,1-.22.31,2.31,2.31,0,0,0-.34.63l-.4,1.25-.18.53-.28,1.28a7.82,7.82,0,0,0-.22.9,10.64,10.64,0,0,0,.25,1.28l.16.8.27.7s0,.32.09.85l.09.67,0,.53a.82.82,0,0,1-.43-.12l-.16-.16a1.21,1.21,0,0,0-.42-.17l-.33-.1a.86.86,0,0,1-.17-.25l-.59-.67a3,3,0,0,1-.32-.51c-.1-.21-.2-.33-.28-.35l-.24.45a1.36,1.36,0,0,1-.32.15c-.19.08-.3.16-.34.26l0,.36-.25.37-.08.23-.22.25-.21.2-.15.07-.19.34a.13.13,0,0,1-.12,0l-.16,0a.22.22,0,0,0-.19,0l-.2.43a.92.92,0,0,1-.2.19.42.42,0,0,1-.26.13l-.4-.12h-.14a1.85,1.85,0,0,0-.31.09,1.05,1.05,0,0,1-.23.07l-.28-.31-.38-.22-.21-.24a.53.53,0,0,0,.17-.19.19.19,0,0,0,0-.11.12.12,0,0,0,0-.11l-.28-.31-.09-.28a.35.35,0,0,1-.08-.15l.12-.14a.17.17,0,0,0,0-.07,1.64,1.64,0,0,0-.23-.43c-.14-.23-.2-.34-.18-.34l.31.23.27.16a2.94,2.94,0,0,0,.35.18.93.93,0,0,0,.36,0,.63.63,0,0,0,.23,0l.48-.23.28-.06.73-.87.35-.21.44-.73.29-.42a1.06,1.06,0,0,0,0-.19.45.45,0,0,0,0-.13,1.07,1.07,0,0,0-.13-.15l-.36-.32a3.11,3.11,0,0,0-1-.34l-1.55-.32-.1,0-.19-.19-.31,0a.13.13,0,0,1-.1-.09s0-.1.15-.18l.74-.52,1.14-.45c.48-.24.79-.33.92-.27h0a1,1,0,0,0,.58.07,3.72,3.72,0,0,1,.64,0l.39.08a1.8,1.8,0,0,0,.36.05c.12,0,.25-.16.4-.4a1.88,1.88,0,0,0,.25-.53V183a2.25,2.25,0,0,1,.19-.48,1.49,1.49,0,0,0,.18-.64l0-.36.19-.82c.05-.24,0-.37-.05-.4s-.2.11-.32.44l-.16.32-.09.34a2.25,2.25,0,0,1-.38.67,2.48,2.48,0,0,1-.71.62,1.57,1.57,0,0,1-.58.25,2,2,0,0,1-.43-.12,1.12,1.12,0,0,1-.4-.18l-.12-.16-.39-.38-.35-.49c-.19-.18-.27-.28-.24-.31l.1-.16A2.17,2.17,0,0,0,157.55,180.66Zm9.84-4.73c.09-.42.16-.74.2-1a2.79,2.79,0,0,0,0-.52c0-.36-.15-.56-.44-.6a.94.94,0,0,0-.48.14,1.67,1.67,0,0,0-.49.37l-.29.38a2.86,2.86,0,0,0-.34.49l-.13.6-.31.35-.2.68s-.06.07-.09.07-.05,0-.06-.11a1.14,1.14,0,0,1,.11-.49l.05-1,.17-.54.11-.49.22-.41.13-.3a2.67,2.67,0,0,1,.57-.62,5.69,5.69,0,0,1,.74-.6,1,1,0,0,1,.54-.17,3.86,3.86,0,0,1,.69.18,1.89,1.89,0,0,1,.66.29,4.29,4.29,0,0,1,.53.6,3.54,3.54,0,0,1,.42.58c0,.07.08.32.17.76l.06.35a9.16,9.16,0,0,1-.29,1.41l-.35,1.36a7.07,7.07,0,0,1-.21.72l-.4.37-.14.23-.26.27a1.28,1.28,0,0,0-.25.55l-.15.58a.43.43,0,0,0,.16,0l1-.73.29-.14a1.94,1.94,0,0,0,.35-.2l.29-.27.82-.46.67-.52a.69.69,0,0,1,.25,0l.29.06.45.26.4.18a4,4,0,0,1,.41.4,3.64,3.64,0,0,1,.39.43l.28.84a2,2,0,0,1,.1.28V181l0,.31a.83.83,0,0,1,0,.15l-.08.13-.84.93,0,.43a1.15,1.15,0,0,1-.24.3l-.2.23-.41.32-.18.18-.32.14-.39.35-.44.19-.22.26-.54-.09-.83.36A1,1,0,0,1,169,185a2.86,2.86,0,0,1-.49-.45l-.25-.29-.14.08a.47.47,0,0,0,0,.15l.09.85a.88.88,0,0,0-.08.23l0,.19-.07.27a.77.77,0,0,0,0,.18,1.37,1.37,0,0,0,0,.2,3.83,3.83,0,0,1-.13.64,1.56,1.56,0,0,0-.1.56q0,.3.24.33l1.62.24.92.26a8.5,8.5,0,0,1,.85.22l.57.33.27,0,.4.33.14,0c.08,0,.37.18.86.46a3.73,3.73,0,0,1,1,.72l.3.35v.21a.68.68,0,0,0,.17.26.91.91,0,0,1,.21.4l.08.45.28.65.05.49,0,.2,0,.34,0,.35a.37.37,0,0,1-.18.14c-.08,0-.3-.09-.67-.37a2.9,2.9,0,0,0-.45-.23,2.09,2.09,0,0,1-.49-.3l-.38-.31-1.7-1.37-.2-.06c-.09,0-.26-.18-.49-.5l-.89-.82-.26-.28-.84-.57-.29-.28-.22-.12-.38-.46-.25-.19a.6.6,0,0,0-.23-.12.24.24,0,0,0-.16.13,1,1,0,0,0-.09.54,2.45,2.45,0,0,1-.25.95c-.15.35-.25.6-.3.74a2.5,2.5,0,0,1-.12.32,3.87,3.87,0,0,1-.57.54l-1,.84c-.25.2-.4.32-.47.36l-.45.2-.22.15-.3.11-.17.09-.33-.16-.61.11a.69.69,0,0,1-.41-.09,1.35,1.35,0,0,1-.28-.15l-.13-.21-.23-.29a.11.11,0,0,1,0-.12.21.21,0,0,1,.1-.06l.41,0a.56.56,0,0,0,.34-.16l.88-.69a4.59,4.59,0,0,0,.94-.88q.23-.33.69-1.08a8.91,8.91,0,0,0,.59-1.07,9.11,9.11,0,0,0,.33-1.25c.14-.61.21-1,.23-1.17v-.4c0-.08,0-.15,0-.19a.53.53,0,0,0-.08-.15l-.83.49c-.07,0-.14-.16-.21-.41s-.13-.45-.19-.61a1.15,1.15,0,0,1-.09-.36V184l-.11-.48a1.27,1.27,0,0,1,0-.37,1.69,1.69,0,0,1,.07-.55,1.38,1.38,0,0,1,.1-.23l.82-1.06v-.43a2.07,2.07,0,0,1,.22-.27l.31-1.46.38-.69.13-.32.09-.2.05-.53.16-.33-.05-.27.19-.18v-.33l.08-.11a.18.18,0,0,1,0-.06A.45.45,0,0,0,167.39,175.93Zm3.37,5.16-1.1,1.1-.35.25-.62.6a2.84,2.84,0,0,0-.45.47,2.16,2.16,0,0,0-.08.26.64.64,0,0,0,0,.26s.09.07.21.09a1.4,1.4,0,0,0,.85-.2c.39-.18.62-.3.71-.35a3.78,3.78,0,0,0,.49-.5l.38-.44v-.17l.42-.8.09-.38a1.08,1.08,0,0,0,.09-.53C171.36,180.59,171.16,180.7,170.76,181.09Z" transform="translate(-50 -5)" style="fill:#fff"/>  <path d="M186.13,185.36c.65.73,1,1.16,1.11,1.3a3.45,3.45,0,0,1,.35.74l.65,1.75,2.68.55,2,.31,1.42.24a1.2,1.2,0,0,0,.37,0,.21.21,0,0,0,.18-.19.81.81,0,0,0,0-.39,1.35,1.35,0,0,1-.08-.42l0-1.32.23-1.69,0-4.75a5.37,5.37,0,0,0-.06-1l-.17-.28c-.53.35-.79.59-.78.71v.19a.47.47,0,0,1,.11.18.4.4,0,0,1-.1.2,4.92,4.92,0,0,0-.81,1.22l0,.3a.88.88,0,0,1-.17.44l-.14.17v.4l-.6,1.33-.41,1a.57.57,0,0,1-.28.22,1.88,1.88,0,0,1-.47-.15l-.54-.16-.28-.3-.28-.24a1,1,0,0,1-.22-.45l-.18-.8c-.19-.5-.28-.75-.29-.76a.08.08,0,0,1,0,0,.86.86,0,0,1,0-.16l.45-.88a5.65,5.65,0,0,0,.09-1.41l0-.87a1.2,1.2,0,0,0-.13-.61l-.12-.13-.75-.32a1.78,1.78,0,0,1-.51-.49,3.46,3.46,0,0,1-.35-.48l-.11-.46s-.09-.13-.23-.3a.83.83,0,0,1-.2-.41c0-.1.11-.19.34-.26h.65l.42-.11.46-.08a1.28,1.28,0,0,0,.5-.19l.46-.44a5.6,5.6,0,0,0,.42-.39l.19-.44.21-.29.15-.23.73-.94a.91.91,0,0,0,.17-.45.15.15,0,0,1,0-.08l-.15-.54a.28.28,0,0,1,.26-.22.46.46,0,0,1,.18.06l.55.35c.51.3.77.44.78.44l.33.44.19.2a1.8,1.8,0,0,1,.36.7,2.23,2.23,0,0,1,.11.54.46.46,0,0,1-.18.37l-.7.4,0,.17-.12.08-.15.2-.37.18a.37.37,0,0,0-.12.13l-.17.33-.15.19-.18.22-.7.1a.69.69,0,0,0-.4.23.61.61,0,0,0-.18.42.93.93,0,0,0,0,.35l.15.62a7.52,7.52,0,0,1,.09,1.15,3.56,3.56,0,0,1,0,.37l-.09.77a.77.77,0,0,0,.19.39l2.21-2.27a1.62,1.62,0,0,0,.36-.52l.24-.66a6.35,6.35,0,0,0,.38-.78.25.25,0,0,0,0-.14l-.28-.24a.63.63,0,0,1-.16-.49.9.9,0,0,1,.22-.58.81.81,0,0,1,.62-.22,1.68,1.68,0,0,1,.37.06l.68.35a.16.16,0,0,0,.18,0l1.25-.62a2,2,0,0,1,.8-.24,1.65,1.65,0,0,1,.46.07,4,4,0,0,1,.57.37l.39.3.3.5.52.58.17.4.29.42a.77.77,0,0,1,.07.27,1.39,1.39,0,0,1-.11.33,1.76,1.76,0,0,0-.11.33l-.39,1.59-.12.79-.34,1.69-.11.39-.33.78-.36.93a1.57,1.57,0,0,1-.53.65,1.18,1.18,0,0,1-.52.19.46.46,0,0,1-.29,0,.55.55,0,0,1-.1-.18,3,3,0,0,0-.54-.61l-.62-.89a.38.38,0,0,0-.32-.16c-.12,0-.17.12-.16.34v2.44l-.11,2.51-.08.55a.95.95,0,0,0,.34.38l.44-.06,1.49.16h2.08l1.21-.18a1.63,1.63,0,0,0,.37-.06l.58-.19a1.46,1.46,0,0,1,.6.43,3.62,3.62,0,0,1,.46.47l.1.53-1.45.86-.62.23-1.33.43-.36.15-.72,0-.85.27-.5,0a1.93,1.93,0,0,1-.5.06h-.24l-.39-.12-.35-.08-.36-.16-2.16-.76-.37-.05-1.72-.65-2.21-.7-.15-.08a2.94,2.94,0,0,0-.52,0l-.95-.12-.31.08a3.35,3.35,0,0,1-.51.08H187l-1.11.46-.33.07-.45.17-.37,0-.28,0c-.18,0-.32-.18-.44-.51a4.8,4.8,0,0,0-.42-.92,1.66,1.66,0,0,1-.24-.46.38.38,0,0,1,.31-.3l1.21-.21.41-.16.59-.15a3.05,3.05,0,0,0,.52-.47c.25-.27.36-.49.33-.65l-.81-.67-.4-.44-.32-.27a2.28,2.28,0,0,1-.36-1,4.13,4.13,0,0,1-.14-1.12l.07-.79a6,6,0,0,0-.63-.05,1.7,1.7,0,0,1-.37,0,1.79,1.79,0,0,1-.53-.25,3.23,3.23,0,0,1-.55-.36,2.61,2.61,0,0,1-.38-1l-.14-.49a1.71,1.71,0,0,1,0-.36.31.31,0,0,1,.1-.27l.38.41a.39.39,0,0,0,.28.09,5.44,5.44,0,0,0,.69-.05,4,4,0,0,0,1.07-.24,2.69,2.69,0,0,1,.55-.18,1.41,1.41,0,0,1,.54.26c.24.16.47.3.71.43a1.18,1.18,0,0,1,.45.35l.14.31.28.35a.62.62,0,0,1,.08.29,1.4,1.4,0,0,1-.18.58c-.06.14-.11.22-.17.24l-.17.11a.16.16,0,0,0,0,.07Zm-2.6-6.18a.3.3,0,0,1,0-.11s0-.11.15-.23a4,4,0,0,0,.26-.41,2.09,2.09,0,0,1,.3-.42l.15-.16-.51-.9-.11-.31-.18-.31-.11-.46s0,0,0-.06a.13.13,0,0,1,0-.11l.66.16a1.35,1.35,0,0,0,.31-.05,1.5,1.5,0,0,1,.89.25,4.07,4.07,0,0,1,.69.39l.25.38a1.42,1.42,0,0,0,.35.36,1.43,1.43,0,0,1,.29.29v.37l.05.27a.45.45,0,0,1-.07.18,2.64,2.64,0,0,1-.75.34l-.78.32a2.38,2.38,0,0,0-.53.11l-.44.4-.55-.32C183.64,179.2,183.54,179.21,183.53,179.18Zm13,1.51a1.35,1.35,0,0,0,0,.53l.07.65a1.48,1.48,0,0,0,.49.8,1.11,1.11,0,0,0,.78.32.61.61,0,0,0,.39-.12,1.08,1.08,0,0,0,.23-.6,12.14,12.14,0,0,1,.27-1.19A6.28,6.28,0,0,0,199,180v-.48a2.6,2.6,0,0,1,0-.43,4.81,4.81,0,0,0,.07-.64,1.07,1.07,0,0,0-.35-.71c-.25-.27-.53-.19-.85.25l-.24.38-.24.3-.08.14-.37.38Z" transform="translate(-50 -5)" style="fill:#fff"/>  <path d="M213.49,185.35l.09-.8s0,0,.07,0h.1l-.05.46.05,2.3,0,.15-.09,2.35.05.17a1.41,1.41,0,0,1,0,.5v1.39l-.1,1c0,.88-.09,1.31-.22,1.3A1,1,0,0,1,213,194a1.61,1.61,0,0,1-.5-.61l-.69-1.46a2.68,2.68,0,0,1-.21-.4.69.69,0,0,1-.05-.24,2.33,2.33,0,0,1,.09-.58,6.06,6.06,0,0,0,.1-1.15l0-1.82.06-.81a6.61,6.61,0,0,0,0-.95.47.47,0,0,0-.15-.33,5.87,5.87,0,0,0-.5.41c-.31.27-.51.4-.57.39a.3.3,0,0,1-.23-.11l-.2-.28-.37-.35a2.46,2.46,0,0,1-.23-.67c-.09-.36-.14-.6-.16-.71s0-.25,0-.39a.61.61,0,0,1,.16-.4l.41-.24a1.15,1.15,0,0,0,.35-.49c.1-.23.16-.37.18-.4l.26-.39.14-.49.32-.5.22-.55.19-.24.31-.89.39-.89a3.58,3.58,0,0,1,.07-.47l.11-.18a5.85,5.85,0,0,0,.21-.65,6.5,6.5,0,0,1,.19-.64l0-.61.11-1a2.25,2.25,0,0,1-.12-.79c0-.07.08-.07.16,0l.35.39,1.28,1.39a2.85,2.85,0,0,1,.79,1.94,2.25,2.25,0,0,1-.12.69,2.81,2.81,0,0,1-.46.69,3.56,3.56,0,0,0-.46.63l-1.15,2.44-.11.35-.44.94s0,.07,0,.12a.32.32,0,0,0,0,.19l.41.62.11.49.18.47Zm5.19-1.73-.41.34-.23.13a2.18,2.18,0,0,0-.31.27.6.6,0,0,1-.28.21c-.07,0-.18-.12-.32-.38l-.27-.41c-.11-.18-.18-.31-.22-.39l-.23-.89a2.74,2.74,0,0,1-.14-.66,1.13,1.13,0,0,1,.12-.48,1.84,1.84,0,0,1,.41-.51,1.5,1.5,0,0,0,.3-.29v-.33a.8.8,0,0,1,.11-.23l.16-.37.27-.33a1.78,1.78,0,0,0,.28-.62l.64-2.42.18-.33,0-.39.15-.37v-.33l.12-.54a1,1,0,0,0-.15-.46l-.27-.45-.3-.68a.53.53,0,0,0-.44-.23l-.21,0-.59.31-.16,0a2.7,2.7,0,0,1,.55-.7,1.17,1.17,0,0,1,.75-.2,1.14,1.14,0,0,1,.86.39l.42.54.52.26c.05,0,.17.14.39.33a2.51,2.51,0,0,1,.38.38l.22.59.13.34-.06.9v.24a1.26,1.26,0,0,1-.08.46l-.16.3a2.37,2.37,0,0,0-.18.54c-.07.24-.12.43-.18.58a.62.62,0,0,0-.05.28l0,.2,2-1.12,1.11-.63a1.11,1.11,0,0,1,.39-.07,1.79,1.79,0,0,1,.82.32,4.71,4.71,0,0,1,.63.44l.22.25.87,1a1.08,1.08,0,0,1,.19.51,2.37,2.37,0,0,1-.05.54,2.43,2.43,0,0,1-.18.6.93.93,0,0,1-.13.18l-.74.46-1.1,1.12-.46.35-.6.66-1.08.62a.9.9,0,0,0-.28.28,1.3,1.3,0,0,0-.06.19.59.59,0,0,0,0,.13,9.19,9.19,0,0,1,.15,1.31,1.85,1.85,0,0,0,0,.53.26.26,0,0,0,.15.19l.52,0,.13.05s.07,0,.17,0l.84,0,.38-.11.25.07.11-.07.44.06.25,0a2.07,2.07,0,0,1,.61.25,5,5,0,0,1,.52.27l.29.34.21.24a3.77,3.77,0,0,1,.31.94,7.2,7.2,0,0,1,.18.92,4.84,4.84,0,0,1-.23,1.11,5.57,5.57,0,0,1-.33,1,1.15,1.15,0,0,1-.35.41c-.15.1-.26.15-.34.13a.24.24,0,0,1-.13,0,.51.51,0,0,1-.12-.13l-.4-.6-1-.71a2.66,2.66,0,0,1-.58-.47l-.33-.52a.82.82,0,0,1,.29-.14h.59L225,189l.23-.05a.43.43,0,0,0,.27-.45,2,2,0,0,0-.06-.28,2.6,2.6,0,0,0-.38-.59c-.22-.29-.38-.49-.48-.61a1.27,1.27,0,0,0-.34-.28l-.75-.18-.9-.24a.39.39,0,0,0-.18.05.39.39,0,0,0-.08.1l.05.82v2.33l0,.27a11.21,11.21,0,0,1-.08,1.28l-.06.93a3.61,3.61,0,0,1-.49,1.47,9,9,0,0,0-.45.85.49.49,0,0,1-.12.23.21.21,0,0,1-.16.08s-.17-.06-.38-.2a1.22,1.22,0,0,1-.38-.32l-.25-.59-.34-.46-.19-.28-.57-.7-.1-.23-.65-.61-.29-.53c-.17-.25-.32-.37-.46-.37s-.37.21-.45.58l-.05.28-.37.87c-.15.37-.26.61-.32.72a.32.32,0,0,1-.31.14c-.09,0-.23-.12-.4-.37l-.34-.41a3.11,3.11,0,0,1-.33-.81,5,5,0,0,1-.2-.84v-.16s.07-.34.22-1l.09-.77c.05-.44.22-.67.51-.7a.55.55,0,0,1,.35.1.89.89,0,0,1,.22.2l.26.48a.13.13,0,0,0,.18,0l1.25-.81,2.24-1.22a.84.84,0,0,0,.25-.36,1.47,1.47,0,0,0,0-.57,6.22,6.22,0,0,0-.21-.81,2.12,2.12,0,0,0-.11-.21l-.41-.44-.12-.22-.38-.63ZM219.9,191a.38.38,0,0,0,.34-.18l.1-.73a2.33,2.33,0,0,0,0,.36l0-2.22c0-.25-.06-.39-.17-.41s-.28.1-.57.32-.49.37-.57.44l-.38.39-.34.23a1.54,1.54,0,0,0-.25.31l-.3.4a.24.24,0,0,0-.06.15c0,.13.16.27.48.45a4.07,4.07,0,0,0,1,.38A3.61,3.61,0,0,0,219.9,191Zm3.41-12.07a4.19,4.19,0,0,0-1.26.46l-.51.23a3,3,0,0,0-.66.47,2.72,2.72,0,0,0-.47.5l-.16.28-.93.88a.29.29,0,0,0,0,.18.8.8,0,0,0,.41.66,1.19,1.19,0,0,0,.93.17,1.82,1.82,0,0,0,.63-.33c.26-.19.42-.3.46-.34s.16-.2.36-.47l.62-.75a6.78,6.78,0,0,0,.73-1.39l.21-.48Z" transform="translate(-50 -5)" style="fill:#fff"/>  <path d="M169.8,238.86a11.85,11.85,0,0,0-3,3.12,8.09,8.09,0,0,0,.41,1.19,10.21,10.21,0,0,0,.71,2.05,31,31,0,0,0,2.15,3.77,5,5,0,0,1,.92,1.73q.1.42,0,.54c-.07.07-.24,0-.51-.11a11.09,11.09,0,0,1-1.23-1.3c.41.51.38.44-.1-.21a21.35,21.35,0,0,1-3.07-6.69,36.11,36.11,0,0,0-2.55,4,5.39,5.39,0,0,1-1.64,2.27h-.31c-.07,0-.1,0-.1-.11a3,3,0,0,1,.41-1.62,47.43,47.43,0,0,1,3-4.74,6.54,6.54,0,0,0,.81-1.29,4.46,4.46,0,0,0-.2-1.08,6.88,6.88,0,0,0-.21-1,25.59,25.59,0,0,1-.4-3.24,10.63,10.63,0,0,1-2.05.22,6.72,6.72,0,0,0-1.74.43.41.41,0,0,1-.51-.22,2.41,2.41,0,0,1-.2-1.07c.13-.51.34-.69.61-.54a4.09,4.09,0,0,0,1.33,0h1.12a11.16,11.16,0,0,1,1.33-.11,41.76,41.76,0,0,1-.2-7,1.23,1.23,0,0,1,.2-.43.55.55,0,0,1,.41.22c.27.14.41.61.41,1.4v3.12a4.73,4.73,0,0,0,2.25-.54c.27-.14.41-.46.41-1a19.23,19.23,0,0,0,.1-2.37c0-.36.14-.46.41-.32s.34.39.41,1v.43a6.1,6.1,0,0,1,0,1.62,2.73,2.73,0,0,1-2,2.26,7.35,7.35,0,0,0-1.54.43v.43a3,3,0,0,1,.1.65,16.07,16.07,0,0,1,2-.32c1.36-.15,2.25-.22,2.66-.22.61-.07.88.11.82.54.13.36,0,.61-.51.76-.14,0-.65,0-1.54.1a9.28,9.28,0,0,0-1.53.22,7.33,7.33,0,0,0-1.84.21c.06.37.13,1,.2,1.84a7.45,7.45,0,0,1,.21,1.4,6.56,6.56,0,0,1,.3,1.18,14.73,14.73,0,0,1,1.84-2.15,9.22,9.22,0,0,0,1.13-1.19c.34-.36.61-.32.82.11A1.23,1.23,0,0,1,169.8,238.86Z" transform="translate(-50 -5)" style="fill:#fff;stroke:#fff;stroke-miterlimit:10;stroke-width:0.5px"/>  <path d="M187.5,230.23c.27-.36.54-.36.82,0,.74.79,1.15,2.63,1.22,5.5a32.24,32.24,0,0,1-.61,8.09,13,13,0,0,1-1.54,5.28c-.27.43-.51.57-.71.43a.83.83,0,0,1-.21-1q1.13-3.88,1.64-6.36a20,20,0,0,0,.31-6.36,10.75,10.75,0,0,0-.92-4.21A1.26,1.26,0,0,1,187.5,230.23Zm4.7-2.58c0-.36.14-.58.41-.65s.48.18.61.54a5.65,5.65,0,0,1,.11,3q-.11,2.81-.21,10.78c0,.64,0,2.12.1,4.42v2.59a8.85,8.85,0,0,1-.2,2.47.43.43,0,1,1-.82,0,8.21,8.21,0,0,1-.2-1.94c.06-.71.1-3.59.1-8.62V233C192.1,230.09,192.13,228.29,192.2,227.65Zm4.19,2.26c.28-.43.52-.47.72-.11a2.48,2.48,0,0,1,.21,1.08,4.72,4.72,0,0,1-.11.75,13,13,0,0,0-.41,2.05,29.72,29.72,0,0,0,0,7.77c.21,1.07.58,2.69,1.13,4.85.34,1.15.58,2,.71,2.69.07.22.07.36,0,.43a.7.7,0,0,1-.61-.1,5.78,5.78,0,0,1-1.43-2.92,33.38,33.38,0,0,1-1-6.68q-.11-2.81.1-7.12A5.33,5.33,0,0,1,196.39,229.91Z" transform="translate(-50 -5)" style="fill:#fff;stroke:#fff;stroke-miterlimit:10;stroke-width:0.5px"/>  <path d="M222.17,238.86a11.67,11.67,0,0,0-3,3.12,8.09,8.09,0,0,0,.41,1.19,9.47,9.47,0,0,0,.72,2.05,31.36,31.36,0,0,0,2.14,3.77,5,5,0,0,1,.92,1.73q.11.42,0,.54c-.06.07-.24,0-.51-.11a11.09,11.09,0,0,1-1.23-1.3c.41.51.38.44-.1-.21a21.35,21.35,0,0,1-3.07-6.69,36.11,36.11,0,0,0-2.55,4,5.31,5.31,0,0,1-1.64,2.27H214a.1.1,0,0,1-.1-.11,3,3,0,0,1,.41-1.62,47.43,47.43,0,0,1,3-4.74,7.11,7.11,0,0,0,.82-1.29,4.62,4.62,0,0,0-.21-1.08,9.19,9.19,0,0,0-.2-1,23.92,23.92,0,0,1-.41-3.24,10.47,10.47,0,0,1-2,.22,6.72,6.72,0,0,0-1.74.43.41.41,0,0,1-.51-.22,2.41,2.41,0,0,1-.2-1.07c.13-.51.34-.69.61-.54a4.09,4.09,0,0,0,1.33,0h1.13a10.85,10.85,0,0,1,1.33-.11,40.82,40.82,0,0,1-.21-7,1.21,1.21,0,0,1,.21-.43.55.55,0,0,1,.4.22c.28.14.41.61.41,1.4v3.12a4.73,4.73,0,0,0,2.25-.54c.27-.14.41-.46.41-1a19.23,19.23,0,0,0,.1-2.37c0-.36.14-.46.41-.32s.34.39.41,1v.43a6.1,6.1,0,0,1,0,1.62,2.72,2.72,0,0,1-2,2.26,7.35,7.35,0,0,0-1.54.43v.43a3.19,3.19,0,0,1,.11.65,15.63,15.63,0,0,1,2-.32c1.36-.15,2.25-.22,2.66-.22.61-.07.89.11.82.54.13.36,0,.61-.51.76-.14,0-.65,0-1.54.1a9.28,9.28,0,0,0-1.53.22,7.39,7.39,0,0,0-1.84.21c.06.37.13,1,.2,1.84a7.45,7.45,0,0,1,.21,1.4,6.56,6.56,0,0,1,.3,1.18,14.73,14.73,0,0,1,1.84-2.15,8.58,8.58,0,0,0,1.13-1.19c.34-.36.61-.32.82.11A1.23,1.23,0,0,1,222.17,238.86Z" transform="translate(-50 -5)" style="fill:#fff;stroke:#fff;stroke-miterlimit:10;stroke-width:0.5px"/>  <style>@keyframes chatMotion2{0%,to{transform:translate(-50px,-5px)}50%{transform:translate(-50px,-0px)}}</style>  <path d="M250,42.64h-68.6a8,8,0,0,0-7.73,8.15V69.27a8,8,0,0,0,7.73,8.15h52.86l3.37,6.16a3.55,3.55,0,0,0,6.31,0l3.37-6.16H250a8,8,0,0,0,7.73-8.15V50.79A8,8,0,0,0,250,42.64Z" transform="translate(-50 -5)" style="fill:#e9f1ff"/>  <path d="M188.48,57.3h-5.72a1.94,1.94,0,0,1-1.89-2V53.68a1.94,1.94,0,0,1,1.89-2h5.72a1.94,1.94,0,0,1,1.88,2v1.64A1.93,1.93,0,0,1,188.48,57.3Z" transform="translate(-50 -5)" style="fill:url(#未命名的渐变_106-3);animation:chatMotion2 .8s ease-in-out infinite"/>  <path d="M201.58,57.3h-5.72a1.93,1.93,0,0,1-1.88-2V53.68a1.94,1.94,0,0,1,1.88-2h5.72a1.94,1.94,0,0,1,1.89,2v1.64A1.93,1.93,0,0,1,201.58,57.3Z" transform="translate(-50 -5)" style="fill:url(#未命名的渐变_106-4);animation:chatMotion2 .8s ease-in-out infinite;animation-delay:.3s"/>  <path d="M215.1,57.51h-5.72a1.94,1.94,0,0,1-1.89-2V53.89a1.94,1.94,0,0,1,1.89-2h5.72a1.94,1.94,0,0,1,1.88,2v1.63A1.94,1.94,0,0,1,215.1,57.51Z" transform="translate(-50 -5)" style="fill:url(#未命名的渐变_106-5);animation:chatMotion2 .8s ease-in-out infinite;animation-delay:.5s"/>  <style>@keyframes bounce{0%{transform:scaleX(0.25)}50%{transform:scaleX(1)}100%{transform:scaleX(0.25)}}</style>  <g style="animation:bounce 3s infinite cubic-bezier(0.24, 0.24, 0.96, 0.94);transform-origin:center">    <path d="M212.88,104H131.23a1.94,1.94,0,0,1-1.88-2v-1.63a1.94,1.94,0,0,1,1.88-2h81.65a1.94,1.94,0,0,1,1.89,2V102A1.94,1.94,0,0,1,212.88,104Z" transform="translate(-50 -5)" style="fill:#e9f1ff"/>    <path d="M167.68,116.86H131.23a1.93,1.93,0,0,1-1.88-2v-1.64a1.94,1.94,0,0,1,1.88-2h36.45a1.94,1.94,0,0,1,1.89,2v1.64A1.93,1.93,0,0,1,167.68,116.86Z" transform="translate(-50 -5)" style="fill:#e9f1ff"/>    <path d="M191.64,129.73h-60.4a1.94,1.94,0,0,1-1.89-2V126.1a1.93,1.93,0,0,1,1.89-2h60.4a1.94,1.94,0,0,1,1.89,2v1.64A1.94,1.94,0,0,1,191.64,129.73Z" transform="translate(-50 -5)" style="fill:#e9f1ff"/>  </g></svg>